<?xml version="1.0" standalone="no"?>
<!DOCTYPE svg PUBLIC "-//W3C//DTD SVG 20010904//EN"
 "http://www.w3.org/TR/2001/REC-SVG-20010904/DTD/svg10.dtd">
<svg version="1.0" xmlns="http://www.w3.org/2000/svg"
 width="128.000000pt" height="128.000000pt" viewBox="0 0 128.000000 128.000000"
 preserveAspectRatio="xMidYMid meet">
<metadata>
Created by potrace 1.14, written by Peter Selinger 2001-2017
</metadata>
<g transform="translate(0.000000,128.000000) scale(0.100000,-0.100000)"
fill="#000000" stroke="none">
<path d="M0 638 c0 -363 4 -637 9 -629 6 9 11 10 15 2 5 -8 182 -11 618 -11
570 0 612 1 624 18 11 14 13 138 14 640 l0 622 -640 0 -640 0 0 -642z m1267
626 c-3 -3 -12 -4 -19 -1 -8 3 -5 6 6 6 11 1 17 -2 13 -5z m-426 -57 c5 -17 4
-25 -2 -21 -6 3 -21 3 -34 0 -23 -6 -23 -7 -8 -38 21 -44 20 -43 39 -23 14 13
19 14 25 3 12 -19 11 -86 -2 -110 -13 -25 -3 -37 15 -17 7 8 33 52 58 99 45
84 45 85 22 86 -39 3 -53 12 -48 31 5 16 16 18 99 17 100 -2 117 -6 109 -29
-4 -8 -10 -12 -15 -9 -25 15 -56 -28 -136 -192 -46 -95 -91 -178 -101 -183
-24 -14 -43 13 -97 142 -26 61 -60 140 -75 174 l-28 61 -39 -9 -39 -10 7 -77
c3 -42 5 -92 4 -109 -1 -18 2 -33 7 -33 4 0 8 -13 8 -29 0 -22 6 -30 24 -35
29 -7 45 -44 25 -57 -24 -15 -465 -11 -502 5 -56 23 -117 121 -117 188 0 88
56 171 131 195 22 7 144 11 348 10 l315 -2 7 -28z m130 -427 c46 -13 69 -57
69 -129 0 -63 -21 -115 -63 -159 -34 -36 -85 -67 -95 -58 -3 3 -1 6 5 6 11 0
73 86 73 102 0 17 -38 7 -60 -17 -13 -14 -46 -32 -74 -40 -84 -25 -145 4 -179
86 l-15 36 -105 -5 c-62 -3 -118 0 -136 6 -29 10 -31 10 -31 -14 0 -34 -23
-85 -48 -107 -11 -10 -39 -21 -62 -24 -49 -7 -35 -23 20 -23 74 0 76 3 106
108 3 11 27 12 117 7 120 -8 152 -20 127 -50 -11 -13 -11 -18 0 -28 10 -10 12
-9 7 6 -4 9 -2 17 3 17 6 0 10 -5 10 -10 0 -6 3 -9 8 -8 4 2 21 -6 38 -16 25
-15 33 -28 37 -60 36 -267 37 -280 24 -288 -6 -5 -87 -7 -179 -6 -219 4 -212
-2 -216 177 l-4 128 -68 5 c-39 3 -85 14 -107 25 -104 53 -143 222 -71 301 49
53 53 53 458 48 217 -3 390 -10 411 -16z"/>
<path d="M437 1194 c-4 -4 -7 -27 -7 -51 0 -53 -24 -70 -49 -34 -49 69 -58 75
-99 74 -63 -3 -109 -27 -129 -67 -16 -35 -16 -36 14 -98 37 -76 68 -107 116
-115 33 -5 40 -1 90 46 29 28 56 49 59 46 3 -3 2 -26 -2 -53 -5 -31 -4 -49 4
-54 35 -23 47 28 44 184 -3 101 -6 123 -18 126 -9 1 -19 0 -23 -4z"/>
<path d="M185 730 c-41 -13 -65 -47 -65 -95 0 -41 31 -105 50 -105 7 0 5 9 -4
22 -25 35 -21 100 8 127 49 46 142 33 168 -24 6 -14 16 -25 21 -25 13 0 1 70
-15 87 -17 17 -124 25 -163 13z"/>
<path d="M434 727 c-10 -28 -9 -70 4 -74 7 -3 11 3 10 14 -3 40 2 55 17 49 8
-3 15 -1 15 5 0 6 15 9 32 7 39 -4 49 -30 22 -59 -17 -18 -16 -19 13 -19 34 0
44 18 33 60 -5 23 -11 25 -73 28 -50 2 -69 -1 -73 -11z"/>
<path d="M675 732 c-25 -6 -31 -13 -33 -40 l-3 -34 44 26 c53 31 86 33 121 5
34 -27 36 -82 4 -117 l-23 -25 22 12 c29 15 42 40 49 93 5 35 2 46 -14 61 -23
21 -115 31 -167 19z"/>
<path d="M471 682 c-8 -16 -7 -21 6 -26 26 -10 40 11 21 30 -15 15 -17 15 -27
-4z"/>
<path d="M227 653 c-11 -10 -8 -18 13 -43 11 -13 20 -27 20 -32 0 -4 -9 -17
-20 -28 -15 -15 -16 -20 -6 -20 19 0 46 38 46 65 0 22 -26 65 -39 65 -4 0 -11
-3 -14 -7z"/>
<path d="M710 631 c-16 -31 -12 -48 16 -70 39 -31 61 -26 24 5 -26 22 -30 31
-25 55 8 33 0 38 -15 10z"/>
<path d="M423 513 c-7 -2 -13 -10 -13 -18 0 -17 172 -27 182 -11 4 6 4 14 0
17 -9 9 -154 19 -169 12z"/>
<path d="M567 433 c-9 -9 -7 -210 3 -248 5 -21 8 -3 9 60 1 50 4 114 7 143 6
48 -1 64 -19 45z"/>
<path d="M462 410 c0 -14 2 -19 5 -12 2 6 2 18 0 25 -3 6 -5 1 -5 -13z"/>
<path d="M651 388 c1 -46 16 -137 18 -113 8 77 5 139 -6 142 -9 3 -13 -6 -12
-29z"/>
</g>
</svg>
